<svg xmlns="http://www.w3.org/2000/svg" viewBox="0 0 1200 640">
  <defs>
    <linearGradient id="bg" x1="0" y1="0" x2="1" y2="1">
      <stop offset="0%" stop-color="#151116"/>
      <stop offset="55%" stop-color="#33243a"/>
      <stop offset="100%" stop-color="#6d5a46"/>
    </linearGradient>
  </defs>
  <rect width="1200" height="640" fill="url(#bg)"/>
  <circle cx="936" cy="126" r="66" fill="#eed6a4" fill-opacity="0.8"/>
  <path d="M0 480 C153 438 294 434 426 462 C578 495 741 497 900 450 C1005 419 1106 417 1200 442 L1200 640 L0 640 Z" fill="#151119"/>
  <rect x="225" y="300" width="400" height="224" rx="8" fill="#1b1620"/>
  <polygon points="195,320 425,196 655,320" fill="#130f17"/>
  <rect x="286" y="350" width="42" height="138" fill="#826046"/>
  <rect x="338" y="334" width="42" height="154" fill="#b88753"/>
  <rect x="390" y="346" width="42" height="142" fill="#694b39"/>
  <rect x="442" y="326" width="42" height="162" fill="#d8c19a"/>
  <rect x="494" y="340" width="42" height="148" fill="#8f5a34"/>
  <rect x="742" y="298" width="232" height="226" fill="#17131b"/>
  <rect x="792" y="338" width="138" height="150" rx="12" fill="#6a4f66"/>
  <rect x="820" y="360" width="82" height="108" fill="#e6d3b1"/>
  <path d="M792 338 H930 V360 H820 C804 360 792 352 792 338 Z" fill="#9f7e7a"/>
  <rect x="760" y="244" width="18" height="108" fill="#1a141d"/>
  <path d="M778 258 C832 258 868 280 896 320" stroke="#f0d79b" stroke-width="12" stroke-linecap="round"/>
</svg>
