<svg xmlns="http://www.w3.org/2000/svg" viewBox="0 0 1200 640">
  <defs>
    <linearGradient id="bg" x1="0" y1="0" x2="1" y2="1">
      <stop offset="0%" stop-color="#1b120d"/>
      <stop offset="55%" stop-color="#3a2318"/>
      <stop offset="100%" stop-color="#6a4b2f"/>
    </linearGradient>
    <linearGradient id="mist" x1="0" y1="0" x2="0" y2="1">
      <stop offset="0%" stop-color="#f5d8a2" stop-opacity="0.28"/>
      <stop offset="100%" stop-color="#f5d8a2" stop-opacity="0"/>
    </linearGradient>
  </defs>
  <rect width="1200" height="640" fill="url(#bg)"/>
  <circle cx="930" cy="138" r="72" fill="#f1c67e" fill-opacity="0.85"/>
  <path d="M0 450 C150 400 250 410 390 446 C500 474 620 470 750 432 C860 399 980 405 1200 458 L1200 640 L0 640 Z" fill="#241612"/>
  <path d="M140 420 L250 312 L360 420 L330 420 L330 505 L170 505 L170 420 Z" fill="#120d0a"/>
  <rect x="205" y="438" width="42" height="67" fill="#241912"/>
  <rect x="280" y="362" width="70" height="143" fill="#16100c"/>
  <polygon points="315,274 365,362 265,362" fill="#120d0a"/>
  <rect x="520" y="380" width="190" height="120" fill="#17110d"/>
  <polygon points="495,390 615,295 735,390" fill="#120d0a"/>
  <rect x="780" y="350" width="105" height="155" fill="#140f0b"/>
  <rect x="825" y="300" width="16" height="50" fill="#140f0b"/>
  <circle cx="833" cy="288" r="12" fill="#d8a85a"/>
  <path d="M0 432 C140 385 230 390 360 425 C480 457 620 457 760 421 C885 390 1025 398 1200 442 L1200 640 L0 640 Z" fill="url(#mist)"/>
</svg>
