<svg xmlns="http://www.w3.org/2000/svg" viewBox="0 0 1200 640">
  <defs>
    <linearGradient id="bg" x1="0" y1="0" x2="1" y2="1">
      <stop offset="0%" stop-color="#1c1410"/>
      <stop offset="60%" stop-color="#4a3426"/>
      <stop offset="100%" stop-color="#9b6d43"/>
    </linearGradient>
  </defs>
  <rect width="1200" height="640" fill="url(#bg)"/>
  <circle cx="935" cy="135" r="66" fill="#f5d08b" fill-opacity="0.82"/>
  <path d="M0 470 C144 430 295 425 423 457 C566 492 730 490 876 446 C980 415 1088 418 1200 444 L1200 640 L0 640 Z" fill="#17110d"/>
  <rect x="258" y="320" width="314" height="205" rx="10" fill="#1a130f"/>
  <polygon points="225,338 415,230 604,338" fill="#120d0a"/>
  <rect x="258" y="350" width="314" height="52" fill="#a03a2d"/>
  <path d="M258 406 H572" stroke="#f1ddbf" stroke-width="8"/>
  <path d="M290 350 V402 M340 350 V402 M390 350 V402 M440 350 V402 M490 350 V402 M540 350 V402" stroke="#f1ddbf" stroke-width="7"/>
  <rect x="300" y="426" width="86" height="66" fill="#f5d08b" fill-opacity="0.25"/>
  <rect x="438" y="426" width="86" height="66" fill="#f5d08b" fill-opacity="0.25"/>
  <rect x="634" y="370" width="268" height="154" rx="8" fill="#130e0b"/>
  <rect x="710" y="300" width="118" height="52" rx="10" fill="#c79b4f"/>
  <rect x="734" y="316" width="70" height="16" rx="8" fill="#221611"/>
  <circle cx="930" cy="420" r="66" fill="#2b1912"/>
  <circle cx="930" cy="420" r="49" fill="#c79b4f"/>
  <circle cx="930" cy="420" r="19" fill="#2b1912"/>
</svg>
